<?xml version="1.0" encoding="utf-8"?>
<!-- Generator: Adobe Illustrator 17.1.0, SVG Export Plug-In . SVG Version: 6.00 Build 0)  -->
<!DOCTYPE svg PUBLIC "-//W3C//DTD SVG 1.1//EN" "http://www.w3.org/Graphics/SVG/1.1/DTD/svg11.dtd">
<svg version="1.1" id="Layer_1" xmlns="http://www.w3.org/2000/svg" xmlns:xlink="http://www.w3.org/1999/xlink" x="0px" y="0px"
	 viewBox="0 0 400 400" enable-background="new 0 0 400 400" xml:space="preserve">
<pattern  width="400" height="400" patternUnits="userSpaceOnUse" id="New_Pattern_Swatch_1" viewBox="0 -400 400 400" overflow="visible">
	<g>
		<polygon fill="none" points="0,-400 400,-400 400,0 0,0 		"/>
		<polygon fill="#2D9DB5" points="200,-306.4 217.5,-323.8 243.6,-350 200,-393.6 156.4,-350 178.2,-328.2 		"/>
		<polygon fill="#511B52" points="150,-256.4 160.9,-267.3 193.6,-300 150,-343.6 150,-343.6 150,-343.6 106.4,-300 		"/>
		<polygon fill="#63BBE9" points="306.4,-200 350,-156.4 393.6,-200 371.8,-221.8 350,-243.6 		"/>
		<polygon fill="#367271" points="343.6,-150 343.6,-150 300,-193.6 256.4,-150 300,-106.4 		"/>
		<polygon fill="#5BB260" points="293.6,-100 250,-143.6 220.9,-114.5 206.4,-100 223.1,-83.2 250,-56.4 271.8,-78.2 		"/>
		<polygon fill="#70C6AA" points="200,-93.6 156.4,-50 178.2,-28.2 200,-6.4 226,-32.4 243.6,-50 200,-93.6 		"/>
		<polygon fill="#7767AC" points="100,-206.4 100,-206.4 100,-206.4 110.9,-217.3 143.6,-250 100,-293.6 56.4,-250 56.4,-250 
			56.4,-250 		"/>
		<polygon fill="#804B9D" points="64.5,-170.9 93.6,-200 50,-243.6 6.4,-200 50,-156.4 		"/>
		<polygon fill="#92D5E0" points="250,-256.4 262.4,-268.8 293.6,-300 250,-343.6 206.4,-300 		"/>
		<polygon fill="#63BBE9" points="243.6,-250 200,-293.6 156.4,-250 200,-206.4 		"/>
		<polygon fill="#24B24B" points="193.6,-200 193.6,-200 193.6,-200 150,-243.6 106.4,-200 150,-156.4 		"/>
		<polygon fill="#EC116C" points="100,-106.4 143.6,-150 100,-193.6 56.4,-150 		"/>
		<polygon fill="#511B52" points="343.6,-250 343.6,-250 300,-293.6 256.4,-250 300,-206.4 		"/>
		<polygon fill="#B5698C" points="293.6,-200 250,-243.6 206.4,-200 250,-156.4 		"/>
		<polygon fill="#2C3189" points="200,-106.4 243.6,-150 200,-193.6 156.4,-150 178.2,-128.2 		"/>
		<polygon fill="#EB6A24" points="150,-143.6 106.4,-100 118.8,-87.6 150,-56.4 193.6,-100 		"/>
		<path fill="#FFFFFF" d="M400,0h-6.4l0,0L350-43.6L306.4,0l0,0h-12.7l0,0L250-43.6L206.4,0l0,0h-12.7v0L150-43.6l-11.4,11.4
			L106.4,0l0,0H93.6l0,0L50-43.6L6.4,0l0,0H0v-6.4L43.6-50L0-93.6v-12.7L43.6-150L0-193.6v-12.7L43.6-250L0-293.6v-12.7L43.6-350
			L0-393.6v-6.4h6.4l0,0l21.8,21.8L50-356.4L93.6-400l0,0h12.7l10.9,10.9l32.7,32.7l43.6-43.6h12.7l43.6,43.6l43.6-43.6h12.7
			l43.6,43.6l43.6-43.6h6.4v6.4l0,0L356.4-350l43.6,43.6l0,0v12.7L356.4-250l43.6,43.6h0v12.7l0,0L356.4-150l43.6,43.6l0,0v12.7l0,0
			L356.4-50L400-6.4l0,0V0z M350-243.6L306.4-200l43.6,43.6l43.6-43.6l-21.8-21.8L350-243.6z M56.4-250L56.4-250l43.6,43.6h0l0,0
			l10.9-10.9l32.7-32.7L100-293.6L56.4-250L56.4-250z M56.4-150l43.6,43.6l43.6-43.6L100-193.6L56.4-150z M150-156.4l43.6-43.6v0
			l0,0L150-243.6L106.4-200L150-156.4z M200-206.4l43.6-43.6L200-293.6L156.4-250L200-206.4z M156.4-150l21.8,21.8l21.8,21.8
			l43.6-43.6L200-193.6L156.4-150z M250-156.4l43.6-43.6L250-243.6L206.4-200L250-156.4z M300-206.4l43.6-43.6l0,0L300-293.6
			L256.4-250L300-206.4z M256.4-150l43.6,43.6l43.6-43.6h0L300-193.6L256.4-150z M350-343.6L306.4-300l43.6,43.6l43.6-43.6
			L350-343.6z M256.4-350l43.6,43.6l43.6-43.6L300-393.6L256.4-350z M250-343.6L206.4-300l43.6,43.6l12.4-12.4l31.2-31.2L250-343.6z
			 M156.4-350l21.8,21.8l21.8,21.8l17.5-17.5l26.2-26.2L200-393.6L156.4-350z M150-343.6L106.4-300l43.6,43.6l10.9-10.9l32.7-32.7
			L150-343.6L150-343.6L150-343.6z M56.4-350l43.6,43.6l43.6-43.6L100-393.6l0,0L56.4-350z M50-256.4L93.6-300L50-343.6L6.4-300
			l6.6,6.6L50-256.4z M50-156.4l14.5-14.5L93.6-200L50-243.6L6.4-200L50-156.4z M50-56.4l21.8-21.8L93.6-100L50-143.6L6.4-100
			l31.9,31.9L50-56.4z M143.6-50L100-93.6L56.4-50L100-6.4L143.6-50z M150-56.4l43.6-43.6L150-143.6L106.4-100l12.4,12.4L150-56.4z
			 M243.6-50L200-93.6l0,0L156.4-50l21.8,21.8L200-6.4l26-26L243.6-50z M250-56.4l21.8-21.8l21.8-21.8L250-143.6l-29.1,29.1
			L206.4-100l16.8,16.8L250-56.4z M343.6-50L300-93.6L256.4-50l41.4,41.4l2.2,2.2l29.1-29.1L343.6-50z M350-56.4l21.8-21.8
			l21.8-21.8L350-143.6L306.4-100L350-56.4z"/>
		<polygon fill="#2D9DB5" points="356.4,-150 400,-106.4 400,-106.4 400,-193.6 400,-193.6 		"/>
		<polygon fill="#511B52" points="393.6,-100 350,-143.6 306.4,-100 350,-56.4 371.8,-78.2 		"/>
		<polygon fill="#7767AC" points="256.4,-50 297.8,-8.6 300,-6.4 329.1,-35.5 343.6,-50 300,-93.6 		"/>
		<polygon fill="#804B9D" points="250,-43.6 206.4,0 206.4,0 293.6,0 293.6,0 		"/>
		<polygon fill="#63BBE9" points="356.4,-50 400,-6.4 400,-6.4 400,-93.6 400,-93.6 		"/>
		<polygon fill="#24B24B" points="350,-43.6 306.4,0 306.4,0 393.6,0 393.6,0 		"/>
		<polygon fill="#2D9DB5" points="0,-193.6 0,-106.4 43.6,-150 		"/>
		<polygon fill="#63BBE9" points="150,-43.6 138.6,-32.3 106.4,0 106.4,0 193.6,0 193.6,0 		"/>
		<polygon fill="#92D5E0" points="93.6,-100 50,-143.6 6.4,-100 38.3,-68.1 50,-56.4 71.8,-78.2 		"/>
		<polygon fill="#63BBE9" points="0,-93.6 0,-6.4 43.6,-50 		"/>
		<polygon fill="#511B52" points="56.4,-50 100,-6.4 143.6,-50 100,-93.6 		"/>
		<polygon fill="#B5698C" points="50,-43.6 6.4,0 6.4,0 93.6,0 93.6,0 		"/>
		<polygon fill="#70C6AA" points="400,-206.4 400,-206.4 400,-293.6 356.4,-250 		"/>
		<polygon fill="#804B9D" points="293.6,-400 206.4,-400 250,-356.4 		"/>
		<polygon fill="#24B24B" points="393.6,-400 306.4,-400 350,-356.4 		"/>
		<polygon fill="#EC116C" points="343.6,-350 300,-393.6 256.4,-350 300,-306.4 		"/>
		<polygon fill="#2C3189" points="356.4,-350 400,-306.4 400,-306.4 400,-393.6 400,-393.6 		"/>
		<polygon fill="#EB6A24" points="350,-256.4 393.6,-300 350,-343.6 306.4,-300 		"/>
		<polygon fill="#63BBE9" points="150,-356.4 193.6,-400 106.4,-400 117.3,-389.1 		"/>
		<polygon fill="#367271" points="143.6,-350 100,-393.6 100,-393.6 56.4,-350 100,-306.4 		"/>
		<polygon fill="#F3EB4D" points="93.6,-300 50,-343.6 6.4,-300 13,-293.4 50,-256.4 		"/>
		<polygon fill="#70C6AA" points="0,-293.6 0,-206.4 43.6,-250 		"/>
		<polygon fill="#B5698C" points="28.2,-378.2 50,-356.4 93.6,-400 93.6,-400 6.4,-400 6.4,-400 		"/>
		<polygon fill="#2C3189" points="0,-393.6 0,-306.4 43.6,-350 		"/>
	</g>
</pattern>
<rect fill="url(#New_Pattern_Swatch_1)" width="400" height="400"/>
</svg>
